<svg width="755" height="80" viewBox="0 0 755 80" fill="none" xmlns="http://www.w3.org/2000/svg">
<path d="M58.1057 10.6274L45.3442 40.1315L33.2715 69.8032" stroke="#7645A7" stroke-width="9"/>
<path d="M58.6131 10.6274L71.3746 40.1315L84.3174 74.9161" stroke="#7645A7" stroke-width="9"/>
<path d="M35.8661 3L8 34.7672L88 75" stroke="#7645A7" stroke-width="9"/>
<path d="M120 58V23H130V53H150V58H120ZM160 58V53H155V33H165V53H180V33H190V58H160ZM200 58V53H195V38H200V33H230V38H205V53H230V58H200ZM240 58V53H235V48H240V43H260V38H240V33H265V38H270V58H240ZM245 53H260V48H245V53ZM275 58V53H300V48H280V43H275V38H280V33H305V38H285V43H305V48H310V53H305V58H275ZM315 58V33H320V28H325V23H340V28H345V33H350V58H340V48H325V58H315ZM325 43H340V33H335V28H330V33H325V43ZM355 58V33H385V38H390V58H380V38H365V58H355ZM410 58V38H400V33H410V23H420V33H430V38H420V58H410ZM440 58V53H435V33H445V53H460V33H470V58H440ZM475 58V33H505V38H510V58H500V38H485V58H475ZM520 58V53H515V38H520V33H545V38H550V48H525V53H545V58H520ZM525 43H540V38H525V43ZM555 58V53H580V48H560V43H555V38H560V33H585V38H565V43H585V48H590V53H585V58H555ZM605 58V48H615V58H605ZM640 58V53H635V38H640V33H660V23H670V58H640ZM645 53H660V38H645V53ZM680 58V53H675V38H680V33H705V38H710V48H685V53H705V58H680ZM685 43H700V38H685V43ZM730 58V53H725V48H720V33H730V48H740V33H750V48H745V53H740V58H730Z" fill="#834EB8"/>
</svg>
